<svg xmlns="http://www.w3.org/2000/svg" viewBox="0 0 64 64" fill="none">
  <rect width="64" height="64" rx="12" fill="#000000"/>
  <!-- broken chain link left -->
  <path d="M12 28c0-4.4 3.6-8 8-8h4v4h-4c-2.2 0-4 1.8-4 4v8c0 2.2 1.8 4 4 4h4v4h-4c-4.4 0-8-3.6-8-8v-8z" fill="#00ff9f"/>
  <!-- broken chain link right (offset/broken) -->
  <path d="M52 36c0 4.4-3.6 8-8 8h-4v-4h4c2.2 0 4-1.8 4-4v-8c0-2.2-1.8-4-4-4h-4v-4h4c4.4 0 8 3.6 8 8v8z" fill="#00ffff"/>
  <!-- break line -->
  <line x1="28" y1="26" x2="36" y2="38" stroke="#00ff9f" stroke-width="2" stroke-dasharray="3 2"/>
  <text x="22" y="35" font-family="monospace" font-size="10" font-weight="bold" fill="#00ff9f">0x</text>
</svg>
